<?xml version='1.0' encoding='utf-8'?>
<svg xmlns="http://www.w3.org/2000/svg" viewBox="0 0 146.67 155.67">
  <path data-role="outer" fill="#e3ff96" fill-rule="evenodd" d="M119.96,101.99 L110.23,125.17 L94,139.42 L56.89,138.64 L39.38,108.44 L37.46,97.99 L37.34,72.49 L31.46,46.45 L26.71,22.57 L29.07,17.43 L34.48,16.24 L38.78,19.43 L44.37,38.81 L51.73,61.24 L53.83,56.02 L60.58,54.09 L67.06,57.18 L67.12,57.23 L68.1,58.07 L68.16,57.71 L68.16,57.7 L69.27,51 L79.45,48.32 L84.15,50.24 L86.21,52.08 L86.74,52.56 L87.11,51.96 L87.11,51.95 L90.57,46.27 L98.32,45.96 L103.41,50.15 L105.95,57 L108.38,73.58 L108.46,74.15 L112.11,78.37 L119.74,87.18 Z" />
  <g data-role="details">
    <polygon points="70.32 68 69.42 68.18 69.25 67.4 67.12 57.23 68.1 58.07 68.16 57.71 70.16 67.27 70.32 68" fill="#21cb71" data-role="detail" data-kind="line" />
    <polygon points="82.77 104.96 78.37 100.56 77.4 90.02 78.31 89.93 79.25 100.15 83.1 104 89.74 103.19 91.94 100.06 91.94 92.56 92.86 92.56 92.86 100.35 90.25 104.05 82.77 104.96" fill="#21cb71" data-role="detail" data-kind="line" />
    <polygon points="88.97 65.06 88.06 65.19 87.99 64.74 86.21 52.08 86.74 52.56 87.11 51.96 88.9 64.61 88.97 65.06" fill="#21cb71" data-role="detail" data-kind="line" />
    <polygon points="70.22 106.9 64.75 103.99 59.16 89.46 60.02 89.13 65.48 103.35 70.4 105.96 76.12 105.32 77.92 102.73 78.36 100.27 79.26 100.44 78.73 103.18 76.64 106.19 70.22 106.9" fill="#21cb71" data-role="detail" data-kind="line" />
    <polygon points="64.13 69.04 61.72 75.18 65.83 81.49 74.62 85.38 87.31 86.61 96.77 96.45 96.11 97.09 92.86 93.7 91.94 92.75 86.88 87.49 74.32 86.25 65.21 82.22 60.7 75.28 63.47 68.22 69.25 67.4 70.16 67.27 87.99 64.74 88.9 64.61 94.96 63.75 100.19 65.84 108.38 73.58 108.46 74.15 112.11 78.37 99.62 66.56 94.85 64.69 64.13 69.04" fill="#21cb71" data-role="detail" data-kind="line" />
    <polygon points="81.58 94.74 88.9 93.93 89.54 99.53 88.75 101.77 83.6 101.99 82.05 99.53 81.58 94.74" fill="#21cb71" data-role="detail" data-kind="nail" />
    <polygon points="67.1 97.6 75.24 96.56 75.74 101.02 75.47 103.26 70.05 103.95 67.99 102.64 67.1 97.6" fill="#21cb71" data-role="detail" data-kind="nail" />
    <polygon points="65.58 69.82 73.64 68.71 73.71 76.28 68.43 76.28 65.08 74.73 65.08 71.94 65.58 69.82" fill="#21cb71" data-role="detail" data-kind="nail" />
  </g>
</svg>